<mxfile host="Electron" agent="Mozilla/5.0 (Macintosh; Intel Mac OS X 10_15_7) AppleWebKit/537.36 (KHTML, like Gecko) draw.io/24.7.5 Chrome/126.0.6478.183 Electron/31.3.0 Safari/537.36" version="24.7.5">
  <diagram name="Page-1" id="-EBKwE1Vl0T7RkcBSEjn">
    <mxGraphModel dx="700" dy="622" grid="1" gridSize="10" guides="1" tooltips="1" connect="1" arrows="1" fold="1" page="1" pageScale="1" pageWidth="827" pageHeight="1169" math="0" shadow="0">
      <root>
        <mxCell id="0" />
        <mxCell id="1" parent="0" />
        <mxCell id="1Zohok0XI3wE60ObGBKs-1" value="Blockchain&lt;div&gt;Network&lt;/div&gt;" style="ellipse;whiteSpace=wrap;html=1;dashed=1;" vertex="1" parent="1">
          <mxGeometry x="240" y="160" width="390" height="240" as="geometry" />
        </mxCell>
        <mxCell id="1Zohok0XI3wE60ObGBKs-2" value="Blockchain&lt;div&gt;node&lt;/div&gt;" style="shape=cube;whiteSpace=wrap;html=1;boundedLbl=1;backgroundOutline=1;darkOpacity=0.05;darkOpacity2=0.1;size=10;" vertex="1" parent="1">
          <mxGeometry x="390" y="370" width="90" height="50" as="geometry" />
        </mxCell>
        <mxCell id="1Zohok0XI3wE60ObGBKs-3" value="Blockchain&lt;div&gt;node&lt;/div&gt;" style="shape=cube;whiteSpace=wrap;html=1;boundedLbl=1;backgroundOutline=1;darkOpacity=0.05;darkOpacity2=0.1;size=10;" vertex="1" parent="1">
          <mxGeometry x="320" y="150" width="90" height="50" as="geometry" />
        </mxCell>
        <mxCell id="1Zohok0XI3wE60ObGBKs-4" value="Blockchain&lt;div&gt;node&lt;/div&gt;" style="shape=cube;whiteSpace=wrap;html=1;boundedLbl=1;backgroundOutline=1;darkOpacity=0.05;darkOpacity2=0.1;size=10;" vertex="1" parent="1">
          <mxGeometry x="590" y="255" width="90" height="50" as="geometry" />
        </mxCell>
        <mxCell id="1Zohok0XI3wE60ObGBKs-7" value="" style="edgeStyle=orthogonalEdgeStyle;rounded=0;orthogonalLoop=1;jettySize=auto;html=1;" edge="1" parent="1" source="1Zohok0XI3wE60ObGBKs-5" target="1Zohok0XI3wE60ObGBKs-6">
          <mxGeometry relative="1" as="geometry" />
        </mxCell>
        <mxCell id="1Zohok0XI3wE60ObGBKs-5" value="User" style="shape=umlActor;verticalLabelPosition=bottom;verticalAlign=top;html=1;outlineConnect=0;" vertex="1" parent="1">
          <mxGeometry x="30" y="205" width="30" height="60" as="geometry" />
        </mxCell>
        <mxCell id="1Zohok0XI3wE60ObGBKs-6" value="Wed3&amp;nbsp;&lt;div&gt;Browser&lt;/div&gt;" style="shape=parallelogram;perimeter=parallelogramPerimeter;whiteSpace=wrap;html=1;fixedSize=1;" vertex="1" parent="1">
          <mxGeometry x="100" y="210" width="90" height="50" as="geometry" />
        </mxCell>
        <mxCell id="1Zohok0XI3wE60ObGBKs-9" value="" style="edgeStyle=orthogonalEdgeStyle;rounded=0;orthogonalLoop=1;jettySize=auto;html=1;endArrow=none;endFill=0;" edge="1" parent="1" source="1Zohok0XI3wE60ObGBKs-8" target="1Zohok0XI3wE60ObGBKs-6">
          <mxGeometry relative="1" as="geometry" />
        </mxCell>
        <mxCell id="1Zohok0XI3wE60ObGBKs-8" value="" style="shape=image;verticalLabelPosition=bottom;labelBackgroundColor=default;verticalAlign=top;aspect=fixed;imageAspect=0;image=https://as2.ftcdn.net/v2/jpg/02/59/27/77/1000_F_259277720_bU50iC5MZ7DeZKh9QXnKWWBoYqFYNtxp.jpg;clipPath=inset(18.33% 18.33% 18.33% 17.67%);" vertex="1" parent="1">
          <mxGeometry x="124.78999999999999" y="290" width="40.42" height="40" as="geometry" />
        </mxCell>
        <mxCell id="1Zohok0XI3wE60ObGBKs-10" value="" style="endArrow=classic;html=1;rounded=0;entryX=0;entryY=0;entryDx=0;entryDy=20;entryPerimeter=0;exitX=1;exitY=0.5;exitDx=0;exitDy=0;" edge="1" parent="1" source="1Zohok0XI3wE60ObGBKs-6" target="1Zohok0XI3wE60ObGBKs-3">
          <mxGeometry width="50" height="50" relative="1" as="geometry">
            <mxPoint x="260" y="490" as="sourcePoint" />
            <mxPoint x="310" y="440" as="targetPoint" />
          </mxGeometry>
        </mxCell>
        <mxCell id="1Zohok0XI3wE60ObGBKs-11" value="" style="endArrow=classic;html=1;rounded=0;entryX=0;entryY=0;entryDx=0;entryDy=20;entryPerimeter=0;exitX=1;exitY=0.5;exitDx=0;exitDy=0;" edge="1" parent="1" source="1Zohok0XI3wE60ObGBKs-6" target="1Zohok0XI3wE60ObGBKs-2">
          <mxGeometry width="50" height="50" relative="1" as="geometry">
            <mxPoint x="190" y="245" as="sourcePoint" />
            <mxPoint x="330" y="180" as="targetPoint" />
          </mxGeometry>
        </mxCell>
        <mxCell id="1Zohok0XI3wE60ObGBKs-12" value="" style="endArrow=classic;html=1;rounded=0;entryX=0;entryY=0;entryDx=0;entryDy=20;entryPerimeter=0;" edge="1" parent="1" source="1Zohok0XI3wE60ObGBKs-6" target="1Zohok0XI3wE60ObGBKs-4">
          <mxGeometry width="50" height="50" relative="1" as="geometry">
            <mxPoint x="200" y="255" as="sourcePoint" />
            <mxPoint x="340" y="190" as="targetPoint" />
          </mxGeometry>
        </mxCell>
        <mxCell id="1Zohok0XI3wE60ObGBKs-13" value="" style="endArrow=none;dashed=1;html=1;dashPattern=1 3;strokeWidth=2;rounded=0;entryX=0;entryY=0;entryDx=10;entryDy=50;entryPerimeter=0;" edge="1" parent="1" target="1Zohok0XI3wE60ObGBKs-2">
          <mxGeometry width="50" height="50" relative="1" as="geometry">
            <mxPoint x="380" y="470" as="sourcePoint" />
            <mxPoint x="390" y="410" as="targetPoint" />
          </mxGeometry>
        </mxCell>
        <mxCell id="1Zohok0XI3wE60ObGBKs-14" value="" style="endArrow=none;dashed=1;html=1;dashPattern=1 3;strokeWidth=2;rounded=0;entryX=1;entryY=1;entryDx=0;entryDy=0;entryPerimeter=0;" edge="1" parent="1" target="1Zohok0XI3wE60ObGBKs-2">
          <mxGeometry width="50" height="50" relative="1" as="geometry">
            <mxPoint x="500" y="460" as="sourcePoint" />
            <mxPoint x="410" y="430" as="targetPoint" />
          </mxGeometry>
        </mxCell>
        <mxCell id="1Zohok0XI3wE60ObGBKs-15" value="Blockchain API" style="rounded=0;whiteSpace=wrap;html=1;fontSize=8;" vertex="1" parent="1">
          <mxGeometry x="410" y="440" width="70" height="40" as="geometry" />
        </mxCell>
        <mxCell id="1Zohok0XI3wE60ObGBKs-16" value="Blockchain Protocol" style="rounded=0;whiteSpace=wrap;html=1;fontSize=8;" vertex="1" parent="1">
          <mxGeometry x="410" y="490" width="70" height="40" as="geometry" />
        </mxCell>
        <mxCell id="1Zohok0XI3wE60ObGBKs-17" value="Peer-to-Peer&lt;div style=&quot;font-size: 9px;&quot;&gt;Network&lt;/div&gt;" style="rounded=0;whiteSpace=wrap;html=1;fontSize=9;" vertex="1" parent="1">
          <mxGeometry x="410" y="545" width="70" height="55" as="geometry" />
        </mxCell>
        <mxCell id="1Zohok0XI3wE60ObGBKs-18" value="" style="endArrow=none;dashed=1;html=1;dashPattern=1 3;strokeWidth=2;rounded=0;entryX=1;entryY=0;entryDx=0;entryDy=0;" edge="1" parent="1" target="1Zohok0XI3wE60ObGBKs-16">
          <mxGeometry width="50" height="50" relative="1" as="geometry">
            <mxPoint x="540" y="460" as="sourcePoint" />
            <mxPoint x="490" y="490" as="targetPoint" />
          </mxGeometry>
        </mxCell>
        <mxCell id="1Zohok0XI3wE60ObGBKs-19" value="Cryptocurrency" style="rounded=1;whiteSpace=wrap;html=1;fontSize=8;" vertex="1" parent="1">
          <mxGeometry x="520" y="480" width="70" height="20" as="geometry" />
        </mxCell>
        <mxCell id="1Zohok0XI3wE60ObGBKs-20" value="" style="endArrow=none;dashed=1;html=1;dashPattern=1 3;strokeWidth=2;rounded=0;entryX=1;entryY=1;entryDx=0;entryDy=0;" edge="1" parent="1" target="1Zohok0XI3wE60ObGBKs-16">
          <mxGeometry width="50" height="50" relative="1" as="geometry">
            <mxPoint x="540" y="580" as="sourcePoint" />
            <mxPoint x="490" y="500" as="targetPoint" />
          </mxGeometry>
        </mxCell>
        <mxCell id="1Zohok0XI3wE60ObGBKs-21" value="Smart Contract" style="rounded=1;whiteSpace=wrap;html=1;fontSize=8;" vertex="1" parent="1">
          <mxGeometry x="520" y="510" width="70" height="20" as="geometry" />
        </mxCell>
        <mxCell id="1Zohok0XI3wE60ObGBKs-22" value="Ledger" style="rounded=1;whiteSpace=wrap;html=1;fontSize=8;" vertex="1" parent="1">
          <mxGeometry x="520" y="540" width="70" height="20" as="geometry" />
        </mxCell>
      </root>
    </mxGraphModel>
  </diagram>
</mxfile>
